<svg xmlns="http://www.w3.org/2000/svg" viewBox="0 0 454.73 273.66"><defs><style>.cls-1{fill:#630799}</style></defs><g id="Layer_2" data-name="Layer 2"><g id="Layer_1-2" data-name="Layer 1"><path class="cls-1" d="M450.14 132.49c-4.31-4.54-9.36-8.37-14.08-12.51-4.46-3.9-9-7.71-13.39-11.69-3.83-3.47-5.32-7.83-5-13.08A91.59 91.59 0 00415.64 69c-3-13.47-9.64-24.68-21.21-32.62a21.36 21.36 0 00-3.7-2.2c-4-1.67-7.79.61-8 5a55.08 55.08 0 00.34 8.61 110.62 110.62 0 01-1.35 31.67c-4 22.62-15.74 39.5-37.28 48.63a96.69 96.69 0 01-15.44 4.69c-20.86 5-35.07 16.75-39.82 38.36-1.91 8.69-1.58 17.51-1.07 26.32a50.73 50.73 0 01-7.42 29.85c-9.7 16-24.15 26.07-41.67 31.45-32.45 10-63.27 5-92.2-12.12-7.86-4.65-15.12-10.37-22.4-15.93-10.42-8-20.51-16.37-30.93-24.34a59.45 59.45 0 00-22.08-11c-10-2.42-20-1.87-29.88.57-3.22.79-5.7.55-8.23-2-3.31-3.3-7.67-4.44-12.37-4.34-9.6.19-17.43 7.37-18 16.6-.62 10.44 5.84 18.78 15.47 20 10.32 1.3 18.83-4.52 20.91-14.28.36-1.73.75-3.45 1.14-5.24 13.87-4.21 27.27-4.5 39.73 3.22 7.3 4.52 14.08 9.93 20.94 15.14 10.45 7.93 20.62 16.23 31.16 24 23.87 17.66 50.86 25.36 80.41 24.44 16.63-.52 32.43-4.44 46.83-12.8 26-15.12 40.76-36.82 38.49-68.08a79.72 79.72 0 01.13-13.47c1.51-15.22 8.27-27.05 22.94-33.15a98.66 98.66 0 0113.41-3.98c26.66-6.78 45.5-22.2 54.21-48.87 4.07-12.46 5-25.32 4.75-38.33 0-1.48.18-3 .27-4.44l1.52-.8c.79 1.16 1.51 2.37 2.37 3.48a46.25 46.25 0 017.81 16.44c2.31 8.61 2.62 17.41 2.15 26.22-.39 7.5 1.92 13.92 7.29 19 5.61 5.29 11.63 10.14 17.45 15.22 3.38 3 6.89 5.78 10 9 2.9 3 2.76 4.51-.4 7.14s-6.62 4.93-9.93 7.4c-4.9 3.65-5.44 7.34-2 12.47 1.56 2.31 3 4.74 4.66 7.49-8.46 4.71-5.66 10.54-2.22 16-5.2 5.87-5.21 5.87-4.26 13.49a35 35 0 01.58 4.27 47.57 47.57 0 01-.5 8.54c-1.05 5.37-3.82 7.88-9.34 7.83-4.8 0-9.58-1.24-14.4-1.48-5.69-.29-11.51-.79-17.09 0-9.5 1.43-16.94 7-22.52 14.58a124.85 124.85 0 00-9.55 16.19c-1.28 2.45.19 5.2 2.53 6.27a4.85 4.85 0 006.14-1.88c.72-1 1.16-2.23 1.8-3.31a112.32 112.32 0 015.88-9.65c8.19-11.13 19-15.21 32.63-12.12a64.91 64.91 0 0015.48 1.45c10.13-.2 17.32-6.87 18.49-16.87a73.91 73.91 0 00.09-12.36c-.17-3.12-.09-5.86 2.07-8.51a9.84 9.84 0 001.49-9.71c-.45-1.33-.73-2.72-1.11-4.18 7.16-7.35 2.32-14-1.43-21 3.41-2.67 6.47-4.87 9.31-7.33 7.4-6.39 8.08-14.14 1.43-21.15zm-429 84A8.46 8.46 0 0113 207.6a8.26 8.26 0 018.54-7.92 8.62 8.62 0 018.27 8.32 8.79 8.79 0 01-8.69 8.53z"/><path class="cls-1" d="M361.4 28.36a14.73 14.73 0 00-.74-3.15c-.92-2.59-2.91-3.86-5.33-3.51a4.59 4.59 0 00-4.05 4.88c0 2.51.3 5 .53 7.53 1.87 20.14-5.26 36.24-21.69 48.09a96.54 96.54 0 01-32.62 15c-10.82 2.8-21.39 6.17-31.11 11.81-14.59 8.46-25.07 20.32-29.61 36.79a106 106 0 00-2.78 15.85c-1.09 9.42-3.61 18.31-8.85 26.29-4.53 6.89-10.67 11.59-18.88 13.26-7 1.44-13.94.66-20.79-1.1-16.51-4.23-30.74-12.63-43.91-23.27-9.77-7.88-19.82-15.48-30.13-22.64A83 83 0 0080 140.57c-3.58-.7-5.46-2.11-7-5.44a18.36 18.36 0 00-28.72-5.9c-5.72 5.11-7.71 11.56-5.64 19 1.89 6.81 6.4 11.34 13.2 12.87 7.55 1.71 14.28-.21 19.27-6.56 1.1-1.4 2.05-2.92 3.14-4.51a15.59 15.59 0 012.12 0c10.08 1.77 19.08 6.19 27.75 11.38 11.13 6.67 21.19 14.8 31.12 23.12 16.54 13.86 35 23.72 56.65 27 18.24 2.78 34-4.68 43.34-20.6 5.46-9.33 8.06-19.52 9-30.21 1.52-18 9.71-32 25.13-41.69 9.09-5.69 19.06-9.09 29.38-11.75 14.13-3.62 27.46-9.28 39.2-18.28 20.17-15.41 26.5-36.23 23.46-60.64zM56.56 151.67a8.69 8.69 0 01-8.66-8.52 8.82 8.82 0 018.26-8.41 8.47 8.47 0 01.4 16.93z"/><path class="cls-1" d="M327.05 15.31c-2.58-.47-5 1.36-5.72 4.44-.45 1.92-.57 3.93-1.11 5.82a83.36 83.36 0 01-3.59 11.26c-4.23 9.51-11.53 15.33-21.84 17.38a56.7 56.7 0 01-19.83.21C263.89 52.72 252.8 52 241.7 54c-16.66 3.07-29 12-36.52 27.28-1.57 3.21-2.43 6.76-3.92 10-2.67 5.86-5.13 11.88-8.51 17.32a22.89 22.89 0 01-17.18 11 50.79 50.79 0 01-14.46-.46c-11.29-2-21.41-7.1-31.4-12.5-8.85-4.79-17.64-9.71-26.68-14.09-20.33-9.86-41.25-17.78-64.28-18.28-1.36 0-2.82-1.18-4-2.1-1-.75-1.5-2-2.34-2.94A18.62 18.62 0 00.06 82.93C.78 91.39 7.17 98.63 15 99.85c9.48 1.47 17.38-2.81 21-11.38.48-1.15.9-2.32 1.52-3.94h4.2c10.53.26 20.6 2.87 30.51 6.16 18.51 6.14 35.69 15.14 52.6 24.7a133.07 133.07 0 0027.06 11.94c8.36 2.52 16.89 3.76 25.55 2.28 14-2.39 22.92-11.31 28.86-23.57A130.3 130.3 0 00211.65 92c5.43-15.59 15.89-25.3 32.4-28.1 8.23-1.4 16.45-1 24.7-.19 6.6.67 13.26 1.67 19.85 1.41 24.34-.94 42.71-20.24 42.63-44.25a5.39 5.39 0 00-4.18-5.56zM18.79 90.06a8.57 8.57 0 01-8.64-8.47 8.84 8.84 0 018.33-8.36A8.45 8.45 0 0127 81.8a8.24 8.24 0 01-8.21 8.26z"/><path class="cls-1" d="M298.35 11.41a9.94 9.94 0 00-2.92-1.34 94.35 94.35 0 00-40.5-3c-12.75 1.8-24.68 6.24-36.2 11.82-10.82 5.25-21.54 10.73-32.31 16.1-14.87 7.41-30.3 13-47 14.8C114.08 52.61 91.56 45.41 71 31c-4.55-3.19-7.83-6.07-7.08-12.88 1-9.16-6.74-17-15.79-18-9.27-1-18 4.77-20.17 13.39-2.41 9.6 2.35 19.08 11.25 22.4 5 1.85 10 1.86 14.59-.74 2.91-1.64 4.89-1 7.22.9a93.78 93.78 0 008.31 6c18 11.76 37.62 18.47 59.34 18.57 5.18-.4 10.4-.57 15.55-1.25 16.93-2.23 32.65-8.18 47.83-15.8 12.35-6.21 24.7-12.42 37.25-18.21C249.48 16 270.4 13 292.14 19.61a12.51 12.51 0 003.71.46 4.19 4.19 0 004.29-3.4 4.64 4.64 0 00-1.79-5.26zM46 27a8.78 8.78 0 01-8.75-8.46A8.62 8.62 0 0146 10.18a8.27 8.27 0 018.06 8.41A8.42 8.42 0 0146 27z"/></g></g></svg>