<svg xmlns="http://www.w3.org/2000/svg" viewBox="0 0 1280 450"><path d="M1280 450H0V0l460.5 32.1 320.2 22.3 357.6 24.9c14.3 1 26.5 10.6 30.9 24.3L1280 450z" fill="#d1010f"/><path d="M780.7 54.4c12.9 13.2 18.3 27.4 7.6 49.2-37.8 76.9-150.7 10.5-191.7 30.5-71.3 34.7-64.1 178.3-159.3 134.6-39.5-18.1-112.2-123.8-91.8-168.2 30.2-66 72.4-55.9 115-68.4" opacity=".6" fill="none" stroke="#b6020e" stroke-width="1.1"/><path d="M0 271.5c44.4-48.5 71.7-118.2 123.6-96.4 49.6 20.8 47.5 55.5 36.3 84-7.6 19.4-20.9 25.9-19.7 62 2.4 70 69.4 83.8 34.7 128.9m571.8 0c2.9-12.7 7.8-23.2 15.3-30 76.4-69.5 115.7 8.4 194.8-27.6 88.9-40.4 125.3-185.2 204-149 58.8 27.1 54.9 68.8 40.2 102.6-4.2 9.7-9.6 16.7-14.3 24.7-1.8 3.1-3.5 6.3-5.1 10-4 9.3-6.8 21.1-6.8 39.2 0 8.7 1.8 19.6 4.3 30" fill="none" stroke="#c10713"/></svg>